<?xml version="1.0" encoding="UTF-8"?> <svg xmlns="http://www.w3.org/2000/svg" width="1408" height="1440" viewBox="0 0 1408 1440" version="1.1"><path d="M 243.827 0.750 C 274.807 0.897, 325.207 0.897, 355.827 0.750 C 386.447 0.603, 361.100 0.483, 299.500 0.483 C 237.900 0.483, 212.847 0.603, 243.827 0.750 M 415.776 0.733 C 418.128 0.945, 421.728 0.942, 423.776 0.727 C 425.824 0.512, 423.900 0.339, 419.500 0.343 C 415.100 0.346, 413.424 0.522, 415.776 0.733 M 167.250 14.743 C 171.512 14.931, 178.488 14.931, 182.750 14.743 C 187.012 14.556, 183.525 14.402, 175 14.402 C 166.475 14.402, 162.988 14.556, 167.250 14.743 M 1254.750 14.737 C 1257.638 14.939, 1262.362 14.939, 1265.250 14.737 C 1268.138 14.535, 1265.775 14.370, 1260 14.370 C 1254.225 14.370, 1251.862 14.535, 1254.750 14.737 M 47.250 131.662 C 45.473 132.379, 45.700 134, 47.578 134 C 49.738 134, 57 141.725, 57 144.023 C 57 145.045, 57.520 146.203, 58.155 146.595 C 58.789 146.988, 59.044 146.881, 58.720 146.357 C 58.397 145.833, 58.508 144.797, 58.967 144.054 C 59.529 143.144, 58.908 141.952, 57.061 140.398 C 55.554 139.130, 53.236 136.500, 51.911 134.553 C 49.413 130.886, 49.319 130.827, 47.250 131.662 M 61.974 150.468 C 62.673 151.311, 63.818 152, 64.519 152 C 66.015 152, 72 158.555, 72 160.194 C 72 160.813, 75.713 164.957, 80.250 169.403 C 84.787 173.850, 87.642 176.141, 86.593 174.494 C 85.544 172.847, 83.816 170.825, 82.753 170 C 76.338 165.021, 74.718 163.384, 72.982 160.124 C 70.322 155.131, 66.590 151.175, 63.391 149.958 C 61.031 149.061, 60.858 149.124, 61.974 150.468 M 1259.355 170.500 C 1259.352 175.450, 1259.521 177.601, 1259.731 175.280 C 1259.940 172.959, 1259.943 168.909, 1259.736 166.280 C 1259.530 163.651, 1259.358 165.550, 1259.355 170.500 M 92.426 182.742 C 94.035 184.521, 96.179 186.240, 97.191 186.560 C 98.202 186.881, 98.770 187.562, 98.454 188.074 C 97.855 189.044, 102.913 191.421, 103.764 190.569 C 104.441 189.893, 97.889 184.503, 96.371 184.487 C 95.691 184.480, 93.867 183.357, 92.317 181.991 L 89.500 179.507 92.426 182.742 M 144.716 233.980 C 144.354 235.363, 144.990 236.633, 146.728 238.001 C 149.806 240.422, 151 240.529, 151 238.383 C 151 237.259, 150.391 236.926, 149.001 237.289 C 147.902 237.577, 146.707 237.335, 146.346 236.752 C 145.961 236.128, 146.167 235.985, 146.845 236.405 C 148.494 237.424, 148.296 234.490, 146.622 233.101 C 145.540 232.203, 145.131 232.391, 144.716 233.980 M 1294.442 301 C 1294.442 317.225, 1294.580 323.863, 1294.748 315.750 C 1294.916 307.637, 1294.916 294.362, 1294.748 286.250 C 1294.580 278.137, 1294.442 284.775, 1294.442 301 M 322.349 310 C 322.349 314.675, 322.522 316.587, 322.732 314.250 C 322.943 311.913, 322.943 308.087, 322.732 305.750 C 322.522 303.413, 322.349 305.325, 322.349 310 M 1294.382 342.500 C 1294.384 349.100, 1294.546 351.670, 1294.741 348.211 C 1294.937 344.752, 1294.936 339.352, 1294.738 336.211 C 1294.540 333.070, 1294.380 335.900, 1294.382 342.500 M 322.425 358 C 322.425 369.825, 322.569 374.663, 322.746 368.750 C 322.923 362.837, 322.923 353.163, 322.746 347.250 C 322.569 341.337, 322.425 346.175, 322.425 358 M 232.480 493 C 232.480 543.875, 232.601 564.688, 232.750 539.250 C 232.898 513.812, 232.898 472.187, 232.750 446.750 C 232.601 421.313, 232.480 442.125, 232.480 493 M 322.450 450.500 C 322.451 469.750, 322.585 477.483, 322.749 467.685 C 322.913 457.888, 322.912 442.138, 322.748 432.685 C 322.584 423.233, 322.450 431.250, 322.450 450.500 M 322.472 551 C 322.472 587.025, 322.597 601.763, 322.750 583.750 C 322.902 565.737, 322.902 536.263, 322.750 518.250 C 322.597 500.238, 322.472 514.975, 322.472 551 M 1294.441 557.500 C 1294.442 573.450, 1294.580 579.835, 1294.748 571.689 C 1294.916 563.543, 1294.916 550.493, 1294.747 542.689 C 1294.579 534.885, 1294.441 541.550, 1294.441 557.500 M 790 601.552 C 780.355 603.483, 775.900 604.896, 773.869 606.670 C 772.973 607.453, 770.723 608.888, 768.869 609.858 C 764.403 612.197, 750.756 620.478, 744.500 624.646 C 741.750 626.478, 736.125 631.738, 732 636.335 C 727.875 640.932, 722.700 645.868, 720.500 647.304 C 718.300 648.740, 714.700 651.674, 712.500 653.823 C 710.300 655.973, 704.225 660.766, 699 664.473 C 693.775 668.180, 689.614 671.621, 689.754 672.119 C 690.019 673.063, 682.375 676.797, 675.500 679.080 C 669.958 680.921, 650.175 680.626, 642.540 678.590 C 639.262 677.715, 635.073 677, 633.231 677 C 631.012 677, 628.632 675.995, 626.174 674.020 C 624.134 672.380, 619.109 669.898, 615.007 668.502 C 610.257 666.887, 606.270 664.744, 604.025 662.599 C 602.086 660.748, 598.475 657.990, 596 656.471 C 593.525 654.952, 588.350 650.512, 584.500 646.605 C 578.416 640.430, 575.798 638.671, 564.500 633.166 C 557.350 629.682, 548.575 625.349, 545 623.536 C 534.866 618.398, 512.078 610.195, 497.111 606.297 C 483.830 602.838, 482.930 602.740, 460 602.266 C 425.280 601.549, 412.589 603.279, 388.252 612.047 C 370.286 618.520, 361.383 622.603, 357.468 626.166 C 355.494 627.962, 352.668 629.941, 351.189 630.563 C 349.710 631.185, 347.824 632.507, 347 633.501 C 345.673 635.100, 345.538 669.888, 345.828 935.904 C 346.194 1270.367, 345.681 1246.896, 353.179 1272.500 C 358.021 1289.034, 361.223 1296.110, 365.602 1299.956 C 371.651 1305.267, 386.613 1308.894, 411 1310.961 C 420.944 1311.804, 526.974 1312, 813.500 1311.707 C 1172.253 1311.340, 1203.531 1311.177, 1215.764 1309.610 C 1230.250 1307.754, 1241.610 1305.151, 1248.479 1302.112 C 1252.279 1300.431, 1253.373 1299.207, 1256.327 1293.330 C 1260.883 1284.264, 1265.562 1269.379, 1266.961 1259.500 C 1267.780 1253.724, 1268.103 1185.204, 1268.124 1013 C 1268.140 881.825, 1268.456 744.800, 1268.826 708.500 C 1269.197 672.200, 1269.211 639.063, 1268.859 634.863 C 1267.860 622.972, 1267.140 622.047, 1255.997 618.343 C 1250.774 616.606, 1242.450 614.584, 1237.500 613.848 C 1225.583 612.077, 1192.788 612.085, 1183 613.861 C 1172.987 615.679, 1155.430 621.537, 1150.641 624.658 C 1148.519 626.041, 1144.469 627.858, 1141.641 628.695 C 1138.814 629.533, 1134.700 631.244, 1132.500 632.498 C 1130.300 633.752, 1126.892 635.287, 1124.926 635.908 C 1122.961 636.530, 1118.686 639.281, 1115.426 642.021 C 1112.143 644.781, 1104.578 649.384, 1098.461 652.343 C 1092.005 655.467, 1085.245 659.618, 1082.178 662.342 C 1079.293 664.904, 1076.515 667, 1076.004 667 C 1074 667, 1064.002 671.194, 1064.415 671.862 C 1064.656 672.252, 1060.049 674.633, 1054.177 677.154 C 1043.881 681.573, 1035.249 683.661, 1022.828 684.738 C 1015.048 685.412, 997.760 683.271, 991.701 680.882 C 988.954 679.799, 983.053 678.062, 978.588 677.021 C 966.131 674.116, 943.457 664.982, 933.024 658.666 C 929.463 656.510, 920.463 650.620, 913.024 645.578 C 905.586 640.536, 894.325 633.805, 888 630.620 C 881.675 627.435, 875.825 624.244, 875 623.528 C 874.175 622.813, 871.047 620.998, 868.050 619.496 C 865.052 617.993, 861.002 615.717, 859.050 614.438 C 857.097 613.159, 852.688 611.338, 849.250 610.392 C 845.813 609.446, 843 608.350, 843 607.957 C 843 606.975, 838.869 605.379, 830 602.935 C 819.926 600.160, 800.336 599.482, 790 601.552 M 873 709.560 C 847.003 715.164, 827.035 739.900, 827.035 766.500 C 827.035 787.562, 840.372 809.167, 859.046 818.358 C 882.455 829.878, 908.368 825.728, 926.548 807.548 C 949.607 784.490, 949.607 748.510, 926.548 725.452 C 912.210 711.113, 892.681 705.318, 873 709.560 M 321.382 741.500 C 321.384 748.100, 321.546 750.670, 321.741 747.211 C 321.937 743.752, 321.936 738.352, 321.738 735.211 C 321.540 732.070, 321.380 734.900, 321.382 741.500 M 232.825 898.500 C 233.072 977.700, 233.437 1042.687, 233.637 1042.917 C 234.316 1043.696, 233.769 774.550, 233.071 764.500 C 232.689 759, 232.578 819.300, 232.825 898.500 M 320.360 772 C 320.360 777.225, 320.529 779.362, 320.735 776.750 C 320.941 774.138, 320.941 769.862, 320.735 767.250 C 320.529 764.638, 320.360 766.775, 320.360 772 M 1296.355 774.500 C 1296.352 779.450, 1296.521 781.601, 1296.731 779.280 C 1296.940 776.959, 1296.943 772.909, 1296.736 770.280 C 1296.530 767.651, 1296.358 769.550, 1296.355 774.500 M 1296.473 865.500 C 1296.473 902.900, 1296.597 918.055, 1296.750 899.177 C 1296.902 880.299, 1296.902 849.699, 1296.749 831.177 C 1296.597 812.655, 1296.473 828.100, 1296.473 865.500 M 320.475 906.500 C 320.475 947.200, 320.599 963.704, 320.750 943.176 C 320.901 922.648, 320.901 889.348, 320.750 869.176 C 320.598 849.004, 320.475 865.800, 320.475 906.500 M 774.718 956.029 C 769.357 957.380, 766.559 958.985, 757.642 965.825 C 745.769 974.933, 742.720 980.596, 740.854 997.010 C 738.932 1013.908, 742.919 1032.681, 749.933 1039.764 C 759.505 1049.430, 777.283 1056.970, 790.500 1056.970 C 817.424 1056.970, 840.902 1033.590, 840.985 1006.697 C 841.002 1001.147, 838.392 988.746, 836.375 984.793 C 831.073 974.405, 821.514 964.121, 815.072 961.875 C 813.382 961.286, 812 960.375, 812 959.851 C 812 959.327, 810.313 958.178, 808.250 957.297 C 803.806 955.400, 780.686 954.526, 774.718 956.029 M 532.609 964.093 C 505.687 973.352, 493.489 1002.348, 505.771 1027.885 C 509.247 1035.112, 518.888 1044.753, 526.115 1048.229 C 544.395 1057.021, 564.321 1053.707, 578.514 1039.514 C 587.596 1030.432, 591.951 1020.056, 591.951 1007.500 C 591.951 986.784, 578.152 968.630, 558.540 963.545 C 550.253 961.397, 539.807 961.618, 532.609 964.093 M 233.429 1108.500 C 233.429 1121.150, 233.573 1126.187, 233.747 1119.694 C 233.922 1113.200, 233.921 1102.850, 233.746 1096.694 C 233.571 1090.537, 233.428 1095.850, 233.429 1108.500 M 233.451 1175 C 233.451 1194.525, 233.585 1202.513, 233.748 1192.750 C 233.912 1182.987, 233.912 1167.013, 233.748 1157.250 C 233.585 1147.487, 233.451 1155.475, 233.451 1175 M 1295.422 1204 C 1295.422 1215.275, 1295.568 1219.888, 1295.746 1214.250 C 1295.924 1208.612, 1295.924 1199.388, 1295.746 1193.750 C 1295.568 1188.112, 1295.422 1192.725, 1295.422 1204 M 422.678 1191.907 C 411.019 1195.754, 402.542 1204.269, 399.020 1215.669 C 396.660 1223.311, 396.497 1228.521, 398.395 1235.650 C 404.079 1256.996, 422.523 1267.144, 444.500 1261.016 C 454.054 1258.352, 459.546 1254.299, 463.847 1246.737 C 473.183 1230.328, 471.387 1213.387, 459 1201 C 449.317 1191.317, 435.188 1187.780, 422.678 1191.907 M 485.326 1338.750 C 512.730 1338.898, 557.280 1338.898, 584.326 1338.750 C 611.372 1338.602, 588.950 1338.481, 534.500 1338.481 C 480.050 1338.481, 457.922 1338.602, 485.326 1338.750 M 831.750 1339.750 C 869.837 1339.895, 932.163 1339.895, 970.250 1339.750 C 1008.337 1339.605, 977.175 1339.486, 901 1339.486 C 824.825 1339.486, 793.663 1339.605, 831.750 1339.750" stroke="none" fill="#00355a" fill-rule="evenodd"></path><path d="M -0 30.559 C -0 50.677, 0.342 60.907, 1 60.500 C 1.630 60.111, 2 48.991, 2 30.446 L 2 1.010 95.250 0.750 L 188.500 0.490 94.250 0.245 L 0 0 -0 30.559 M 463.206 0.741 C 466.895 0.932, 473.195 0.934, 477.206 0.743 C 481.218 0.553, 478.200 0.396, 470.500 0.395 C 462.800 0.393, 459.518 0.549, 463.206 0.741 M 647.169 0.750 C 726.737 0.891, 857.237 0.891, 937.169 0.750 C 1017.101 0.609, 952 0.493, 792.500 0.493 C 633 0.493, 567.601 0.609, 647.169 0.750 M 1158.329 0.750 C 1200.034 0.894, 1267.984 0.894, 1309.329 0.750 C 1350.673 0.605, 1316.550 0.487, 1233.500 0.487 C 1150.450 0.487, 1116.623 0.605, 1158.329 0.750 M 73.500 15.995 C 66.350 16.962, 55.325 19.235, 49 21.044 C 38.103 24.161, 37.026 24.715, 28.467 31.588 L 19.433 38.841 16.717 49.671 C 13.112 64.040, 13.074 73.675, 16.597 80 C 18.233 82.938, 18.921 83.632, 18.577 82 C 16.013 69.809, 15.647 64.626, 16.797 56.740 C 18.998 41.640, 24.896 33.304, 38.008 26.762 C 52.138 19.712, 76.997 16.117, 119 15.048 L 146.500 14.348 116.500 14.291 C 93.201 14.247, 83.596 14.628, 73.500 15.995 M 425.250 14.750 C 554.912 14.890, 767.087 14.890, 896.750 14.750 C 1026.412 14.610, 920.325 14.496, 661 14.496 C 401.675 14.496, 295.587 14.610, 425.250 14.750 M 1162.322 14.750 C 1178.723 14.904, 1205.273 14.904, 1221.322 14.749 C 1237.370 14.595, 1223.950 14.469, 1191.500 14.469 C 1159.050 14.469, 1145.920 14.595, 1162.322 14.750 M 1388.496 661.500 C 1388.496 968.950, 1388.611 1094.874, 1388.750 941.332 C 1388.889 787.790, 1388.889 536.240, 1388.750 382.332 C 1388.611 228.424, 1388.496 354.050, 1388.496 661.500 M 160.613 106.054 C 157.926 106.505, 155.327 107.273, 154.839 107.761 C 154.322 108.278, 156.381 110.597, 159.768 113.314 C 162.967 115.880, 170.740 123.496, 177.042 130.239 C 190.780 144.938, 230.282 186.251, 241.489 197.641 C 245.895 202.119, 252.650 209.147, 256.500 213.259 C 273.916 231.860, 297.202 256.183, 304.593 263.494 C 311.966 270.788, 319.361 279.289, 321.500 282.929 C 322.827 285.189, 323.173 549.346, 322.007 670.500 C 320.681 808.198, 320.712 1221.703, 322.049 1243 C 323.623 1268.067, 329.182 1295.899, 335.149 1308.594 C 338.062 1314.790, 345.778 1323.020, 351.661 1326.205 C 357.123 1329.162, 372.305 1333.524, 385 1335.784 C 396.664 1337.861, 548.244 1338.611, 928.500 1338.473 C 1248.928 1338.358, 1226.157 1338.745, 1249.151 1333.022 C 1271.855 1327.371, 1279.762 1318.273, 1287.412 1289 C 1293.011 1267.573, 1294.016 1257.242, 1294.996 1211 C 1296.025 1162.412, 1296.437 757.515, 1295.458 755.932 C 1295.092 755.340, 1294.784 608.976, 1294.774 430.678 C 1294.761 191.180, 1294.461 106.308, 1293.628 105.765 C 1292.070 104.751, 166.679 105.038, 160.613 106.054 M 33.968 117.750 C 35.617 120.912, 38.616 125.300, 40.634 127.500 C 42.651 129.700, 43.937 130.825, 43.492 130 C 41.828 126.920, 31.799 112, 31.393 112 C 31.161 112, 32.320 114.588, 33.968 117.750 M 49.141 137.250 C 52.611 142.201, 73.319 162.853, 71.953 160 C 70.417 156.794, 65.957 152, 64.509 152 C 62.820 152, 57 145.632, 57 143.784 C 57 141.917, 49.725 134, 48.010 134 C 47.380 134, 47.889 135.463, 49.141 137.250 M 1252.500 144.618 C 1245.748 150.463, 1233.041 159.427, 1221.528 166.467 C 1215.494 170.158, 1208.069 174.980, 1205.028 177.184 C 1197.113 182.922, 1185.701 189.985, 1184.332 189.993 C 1183.689 189.997, 1180.791 192.025, 1177.891 194.500 C 1174.992 196.975, 1172.268 199, 1171.839 199 C 1169.721 199, 1159.668 204.364, 1161 204.784 C 1161.825 205.044, 1184.054 216.022, 1210.398 229.180 C 1243.062 245.495, 1258.622 252.778, 1259.320 252.080 C 1259.993 251.407, 1260.256 236.613, 1260.089 208.778 C 1259.822 164.298, 1258.999 143.581, 1257.438 142.066 C 1256.867 141.512, 1254.934 142.511, 1252.500 144.618 M 80.473 170.807 C 87.248 177.796, 89.644 179.824, 86.903 176.250 C 85.052 173.838, 83.234 172.054, 78 167.516 C 75.351 165.219, 76.368 166.573, 80.473 170.807 M 113.980 205.303 C 119.194 210.636, 123.653 215, 123.889 215 C 124.621 215, 113.738 203.709, 109 199.553 C 106.525 197.382, 108.766 199.969, 113.980 205.303 M 154.988 247.307 C 163.506 255.938, 170.685 263, 170.942 263 C 171.654 263, 149.102 240.028, 144 235.557 C 141.525 233.388, 146.470 238.675, 154.988 247.307 M 1141 311.119 C 1127.136 313.351, 1112.968 324.133, 1106.521 337.357 C 1086.500 378.426, 1129.574 421.500, 1170.643 401.479 C 1189.215 392.425, 1200.149 371.688, 1197.029 351.434 C 1193.903 331.141, 1177.080 314.160, 1157 311.029 C 1149.649 309.882, 1148.647 309.888, 1141 311.119 M 1046.695 511.096 C 1036.898 513.402, 1023.900 520.904, 1016.662 528.432 C 1006.464 539.039, 1002.046 549.407, 1001.270 564.549 C 1000.255 584.377, 1006.464 598.473, 1021.792 611.140 C 1028.222 616.454, 1034.605 619.660, 1044.397 622.498 C 1058.974 626.723, 1066.673 625.644, 1084.295 616.907 C 1092.256 612.960, 1103.928 600.961, 1108.016 592.522 C 1118.181 571.537, 1112.377 544.001, 1093.816 525.148 C 1090.801 522.086, 1077.431 515.363, 1070.744 513.547 C 1067.860 512.763, 1063.928 511.645, 1062.007 511.061 C 1057.924 509.821, 1052.057 509.834, 1046.695 511.096 M 790 601.552 C 780.355 603.483, 775.900 604.896, 773.869 606.670 C 772.973 607.453, 770.723 608.888, 768.869 609.858 C 764.403 612.197, 750.756 620.478, 744.500 624.646 C 741.750 626.478, 736.125 631.738, 732 636.335 C 727.875 640.932, 722.700 645.868, 720.500 647.304 C 718.300 648.740, 714.700 651.674, 712.500 653.823 C 710.300 655.973, 704.225 660.766, 699 664.473 C 693.775 668.180, 689.614 671.621, 689.754 672.119 C 690.019 673.063, 682.375 676.797, 675.500 679.080 C 669.958 680.921, 650.175 680.626, 642.540 678.590 C 639.262 677.715, 635.073 677, 633.231 677 C 631.012 677, 628.632 675.995, 626.174 674.020 C 624.134 672.380, 619.109 669.898, 615.007 668.502 C 610.257 666.887, 606.270 664.744, 604.025 662.599 C 602.086 660.748, 598.475 657.990, 596 656.471 C 593.525 654.952, 588.350 650.512, 584.500 646.605 C 578.416 640.430, 575.798 638.671, 564.500 633.166 C 557.350 629.682, 548.575 625.349, 545 623.536 C 534.866 618.398, 512.078 610.195, 497.111 606.297 C 483.830 602.838, 482.930 602.740, 460 602.266 C 425.280 601.549, 412.589 603.279, 388.252 612.047 C 370.286 618.520, 361.383 622.603, 357.468 626.166 C 355.494 627.962, 352.668 629.941, 351.189 630.563 C 349.710 631.185, 347.824 632.507, 347 633.501 C 345.673 635.100, 345.538 669.888, 345.828 935.904 C 346.194 1270.367, 345.681 1246.896, 353.179 1272.500 C 358.021 1289.034, 361.223 1296.110, 365.602 1299.956 C 371.651 1305.267, 386.613 1308.894, 411 1310.961 C 420.944 1311.804, 526.974 1312, 813.500 1311.707 C 1172.253 1311.340, 1203.531 1311.177, 1215.764 1309.610 C 1230.250 1307.754, 1241.610 1305.151, 1248.479 1302.112 C 1252.279 1300.431, 1253.373 1299.207, 1256.327 1293.330 C 1260.883 1284.264, 1265.562 1269.379, 1266.961 1259.500 C 1267.780 1253.724, 1268.103 1185.204, 1268.124 1013 C 1268.140 881.825, 1268.456 744.800, 1268.826 708.500 C 1269.197 672.200, 1269.211 639.063, 1268.859 634.863 C 1267.860 622.972, 1267.140 622.047, 1255.997 618.343 C 1250.774 616.606, 1242.450 614.584, 1237.500 613.848 C 1225.583 612.077, 1192.788 612.085, 1183 613.861 C 1172.987 615.679, 1155.430 621.537, 1150.641 624.658 C 1148.519 626.041, 1144.469 627.858, 1141.641 628.695 C 1138.814 629.533, 1134.700 631.244, 1132.500 632.498 C 1130.300 633.752, 1126.892 635.287, 1124.926 635.908 C 1122.961 636.530, 1118.686 639.281, 1115.426 642.021 C 1112.143 644.781, 1104.578 649.384, 1098.461 652.343 C 1092.005 655.467, 1085.245 659.618, 1082.178 662.342 C 1079.293 664.904, 1076.515 667, 1076.004 667 C 1074 667, 1064.002 671.194, 1064.415 671.862 C 1064.656 672.252, 1060.049 674.633, 1054.177 677.154 C 1043.881 681.573, 1035.249 683.661, 1022.828 684.738 C 1015.048 685.412, 997.760 683.271, 991.701 680.882 C 988.954 679.799, 983.053 678.062, 978.588 677.021 C 966.131 674.116, 943.457 664.982, 933.024 658.666 C 929.463 656.510, 920.463 650.620, 913.024 645.578 C 905.586 640.536, 894.325 633.805, 888 630.620 C 881.675 627.435, 875.825 624.244, 875 623.528 C 874.175 622.813, 871.047 620.998, 868.050 619.496 C 865.052 617.993, 861.002 615.717, 859.050 614.438 C 857.097 613.159, 852.688 611.338, 849.250 610.392 C 845.813 609.446, 843 608.350, 843 607.957 C 843 606.975, 838.869 605.379, 830 602.935 C 819.926 600.160, 800.336 599.482, 790 601.552 M 873 709.560 C 847.003 715.164, 827.035 739.900, 827.035 766.500 C 827.035 787.562, 840.372 809.167, 859.046 818.358 C 882.455 829.878, 908.368 825.728, 926.548 807.548 C 949.607 784.490, 949.607 748.510, 926.548 725.452 C 912.210 711.113, 892.681 705.318, 873 709.560 M 774.718 956.029 C 769.357 957.380, 766.559 958.985, 757.642 965.825 C 745.769 974.933, 742.720 980.596, 740.854 997.010 C 738.932 1013.908, 742.919 1032.681, 749.933 1039.764 C 759.505 1049.430, 777.283 1056.970, 790.500 1056.970 C 817.424 1056.970, 840.902 1033.590, 840.985 1006.697 C 841.002 1001.147, 838.392 988.746, 836.375 984.793 C 831.073 974.405, 821.514 964.121, 815.072 961.875 C 813.382 961.286, 812 960.375, 812 959.851 C 812 959.327, 810.313 958.178, 808.250 957.297 C 803.806 955.400, 780.686 954.526, 774.718 956.029 M 532.609 964.093 C 505.687 973.352, 493.489 1002.348, 505.771 1027.885 C 509.247 1035.112, 518.888 1044.753, 526.115 1048.229 C 544.395 1057.021, 564.321 1053.707, 578.514 1039.514 C 587.596 1030.432, 591.951 1020.056, 591.951 1007.500 C 591.951 986.784, 578.152 968.630, 558.540 963.545 C 550.253 961.397, 539.807 961.618, 532.609 964.093 M 422.678 1191.907 C 411.019 1195.754, 402.542 1204.269, 399.020 1215.669 C 396.660 1223.311, 396.497 1228.521, 398.395 1235.650 C 404.079 1256.996, 422.523 1267.144, 444.500 1261.016 C 454.054 1258.352, 459.546 1254.299, 463.847 1246.737 C 473.183 1230.328, 471.387 1213.387, 459 1201 C 449.317 1191.317, 435.188 1187.780, 422.678 1191.907 M 1387.646 1309.365 C 1387.233 1313.690, 1387.105 1317.438, 1387.360 1317.693 C 1388.014 1318.347, 1389.288 1305.691, 1388.799 1303.394 C 1388.577 1302.352, 1388.058 1305.039, 1387.646 1309.365" stroke="none" fill="#ffffff" fill-rule="evenodd"></path><path d="M 140.500 14.640 C 88.552 15.726, 55.572 19.103, 42.148 24.712 C 37.379 26.704, 28.772 32.272, 26 35.158 C 19.987 41.416, 14.905 59.713, 16.460 69.499 C 19.314 87.461, 25.551 102.486, 37.325 119.761 C 41.546 125.955, 45 131.483, 45 132.046 C 45 132.714, 45.729 132.680, 47.095 131.949 C 48.864 131.002, 49.439 131.192, 50.785 133.164 C 51.661 134.449, 54.014 137.161, 56.012 139.191 C 58.632 141.851, 59.407 143.308, 58.791 144.409 C 57.820 146.144, 61.032 150, 63.449 150 C 65.364 150, 70.635 155.579, 73.015 160.124 C 74.722 163.385, 76.408 165.094, 82.763 170 C 83.832 170.825, 85.843 173.300, 87.233 175.500 C 90.149 180.115, 94.576 184.469, 96.371 184.487 C 98.477 184.509, 104.022 189.780, 103.465 191.230 C 103.147 192.059, 109.164 199.011, 118.720 208.855 C 127.399 217.797, 136.493 227.337, 138.928 230.056 C 143.600 235.271, 145 236.037, 145 233.378 C 145 232.049, 145.271 231.980, 146.500 233 C 148.260 234.461, 148.565 237.467, 146.845 236.405 C 146.167 235.985, 145.961 236.128, 146.346 236.752 C 146.707 237.335, 147.902 237.577, 149.001 237.289 C 150.391 236.926, 151 237.259, 151 238.383 C 151 239.273, 150.480 240, 149.845 240 C 149.209 240, 155.847 247.308, 164.595 256.239 C 188.298 280.439, 193.728 285.690, 214.401 304.397 L 233.302 321.500 233.094 538.500 C 232.735 913.742, 233.719 1325.630, 234.993 1333.500 C 236.626 1343.585, 240.946 1360.839, 243.006 1365.500 C 243.978 1367.700, 245.067 1370.879, 245.426 1372.565 C 245.784 1374.251, 247.866 1377.851, 250.052 1380.565 C 257.948 1390.370, 259.547 1392.549, 261.011 1395.500 C 262.838 1399.181, 272.585 1409.062, 276 1410.695 C 277.375 1411.353, 280.750 1412.848, 283.500 1414.018 C 286.250 1415.187, 289.850 1416.733, 291.500 1417.453 C 298.391 1420.460, 311.113 1422.286, 338.500 1424.202 C 359.044 1425.639, 1247.948 1425.509, 1276.500 1424.065 C 1304.834 1422.632, 1319.027 1420.253, 1325.115 1415.918 C 1326.597 1414.863, 1328.120 1414, 1328.500 1414 C 1328.880 1414, 1330.413 1413.130, 1331.907 1412.066 C 1333.400 1411.003, 1335.750 1409.850, 1337.129 1409.504 C 1338.508 1409.158, 1341.856 1407.215, 1344.569 1405.187 C 1347.281 1403.159, 1350.789 1400.834, 1352.364 1400.020 C 1355.397 1398.453, 1364 1389.442, 1364 1387.833 C 1364 1387.310, 1365.302 1385.222, 1366.893 1383.191 C 1368.763 1380.804, 1370.757 1375.967, 1372.536 1369.500 C 1374.050 1364, 1375.628 1359.050, 1376.045 1358.500 C 1377.724 1356.282, 1385 1327.794, 1386.516 1317.500 C 1387.998 1307.446, 1388.127 1254.053, 1388.023 696.500 C 1387.927 182.437, 1387.682 81.153, 1386.465 52.500 C 1385.670 33.800, 1385.016 17.708, 1385.010 16.741 C 1385 15.064, 1356.508 14.984, 774.611 15.040 C 438.897 15.072, 162.034 14.929, 159.361 14.723 C 156.687 14.517, 148.200 14.479, 140.500 14.640 M 158.699 105.965 C 152.951 107.079, 152.293 108.400, 156.266 110.856 C 158.143 112.016, 168.626 122.310, 179.560 133.732 C 190.495 145.155, 207.041 162.375, 216.329 172 C 240.725 197.280, 248.635 205.551, 266 223.944 C 274.525 232.973, 285.212 244.085, 289.750 248.637 C 294.288 253.190, 298 257.332, 298 257.842 C 298 258.352, 300.702 260.983, 304.005 263.688 C 307.308 266.393, 312.735 272.160, 316.066 276.504 L 322.122 284.402 321.438 523.451 C 320.506 849.449, 320.389 1057.482, 321.079 1163.500 C 321.628 1247.713, 321.772 1253.199, 323.769 1265.500 C 326.117 1279.962, 331.154 1300.253, 334.001 1306.717 C 339.166 1318.443, 348.981 1327.360, 359.899 1330.244 C 373.731 1333.898, 384.215 1336.029, 393.196 1337.011 C 417.686 1339.690, 1189.474 1340.537, 1220.068 1337.919 C 1233.527 1336.768, 1252.090 1333.142, 1260.079 1330.105 C 1274.567 1324.597, 1282.427 1311.804, 1289.325 1282.500 C 1295.150 1257.759, 1295.267 1254.813, 1295.910 1117.500 C 1296.555 979.719, 1296.506 924.266, 1295.309 435.500 L 1294.500 105.500 728.500 105.365 C 417.200 105.290, 160.790 105.560, 158.699 105.965 M 1246 150.121 C 1240.225 154.508, 1234.707 158.750, 1233.739 159.548 C 1232.770 160.347, 1231.798 161, 1231.579 161 C 1230.743 161, 1209.402 174.224, 1207.500 175.921 C 1206.400 176.902, 1201.107 180.521, 1195.738 183.963 C 1190.368 187.405, 1185.539 190.959, 1185.006 191.861 C 1184.258 193.125, 1183.846 193.212, 1183.203 192.239 C 1182.581 191.300, 1181.748 191.656, 1179.934 193.633 C 1178.595 195.093, 1173.733 198.045, 1169.128 200.192 L 1160.756 204.096 1208.128 227.739 C 1234.183 240.743, 1256.175 251.409, 1257 251.441 C 1257.825 251.474, 1258.831 251.050, 1259.235 250.500 C 1261.096 247.967, 1259.340 144.914, 1257.403 143.026 C 1256.876 142.512, 1252.126 145.468, 1246 150.121 M 1141 311.119 C 1127.136 313.351, 1112.968 324.133, 1106.521 337.357 C 1086.500 378.426, 1129.574 421.500, 1170.643 401.479 C 1189.215 392.425, 1200.149 371.688, 1197.029 351.434 C 1193.903 331.141, 1177.080 314.160, 1157 311.029 C 1149.649 309.882, 1148.647 309.888, 1141 311.119 M 1047 511.637 C 1046.175 511.901, 1042.575 513.053, 1039 514.198 C 1023.856 519.047, 1010.323 532.286, 1003.934 548.500 C 1001.872 553.735, 1001.574 556.157, 1001.594 567.500 C 1001.614 578.422, 1001.972 581.459, 1003.838 586.500 C 1010.126 603.495, 1025.753 617.447, 1043.841 622.213 C 1053.174 624.672, 1062.541 625.536, 1065.387 624.199 C 1066.549 623.653, 1070.425 622.210, 1074 620.993 C 1084.511 617.413, 1090.406 613.464, 1098.877 604.327 C 1107.868 594.628, 1110.526 589.128, 1112.057 577.050 C 1116.013 545.848, 1096.184 518.252, 1065.662 512.482 C 1058.013 511.036, 1050.015 510.674, 1047 511.637" stroke="none" fill="#222221" fill-rule="evenodd"></path></svg> 